<svg xmlns="http://www.w3.org/2000/svg" xmlns:xlink="http://www.w3.org/1999/xlink" width="940" zoomAndPan="magnify" viewBox="0 0 705 591.000005" height="788" preserveAspectRatio="xMidYMid meet" version="1.0"><defs><g/></defs><g fill="#ffffff" fill-opacity="1"><g transform="translate(6.602849, 440.255069)"><g><path d="M 17.9375 0 L 17.9375 -290.53125 L 103.140625 -290.53125 L 172.75 -176.453125 C 178.082031 -167.617188 183.28125 -158.425781 188.34375 -148.875 C 193.414062 -139.320312 198.453125 -128.820312 203.453125 -117.375 C 208.460938 -105.9375 213.4375 -93.132812 218.375 -78.96875 L 210.78125 -73.90625 C 210.125 -84.425781 209.375 -96.578125 208.53125 -110.359375 C 207.6875 -124.140625 206.9375 -137.660156 206.28125 -150.921875 C 205.632812 -164.179688 205.3125 -175.226562 205.3125 -184.0625 L 205.3125 -290.53125 L 286.4375 -290.53125 L 286.4375 0 L 201.421875 0 L 136.484375 -106.078125 C 129.984375 -116.859375 123.9375 -127.414062 118.34375 -137.75 C 112.757812 -148.082031 107.238281 -159.164062 101.78125 -171 C 96.320312 -182.832031 90.273438 -196.15625 83.640625 -210.96875 L 93.59375 -211.953125 C 94.632812 -198.296875 95.578125 -184.738281 96.421875 -171.28125 C 97.265625 -157.832031 97.910156 -145.453125 98.359375 -134.140625 C 98.816406 -122.835938 99.046875 -113.484375 99.046875 -106.078125 L 99.046875 0 Z M 17.9375 0 "/></g></g><g transform="translate(311.163736, 440.255069)"><g><path d="M 17.9375 0 L 17.9375 -290.53125 L 142.734375 -290.53125 C 164.703125 -290.53125 183.875 -286.300781 200.25 -277.84375 C 216.625 -269.394531 229.328125 -257.46875 238.359375 -242.0625 C 247.398438 -226.664062 251.921875 -208.632812 251.921875 -187.96875 C 251.921875 -167.164062 247.304688 -149.191406 238.078125 -134.046875 C 228.847656 -118.910156 215.878906 -107.210938 199.171875 -98.953125 C 182.472656 -90.703125 163.007812 -86.578125 140.78125 -86.578125 L 65.3125 -86.578125 L 65.3125 -148.96875 L 126.9375 -148.96875 C 136.03125 -148.96875 143.796875 -150.554688 150.234375 -153.734375 C 156.671875 -156.921875 161.644531 -161.441406 165.15625 -167.296875 C 168.664062 -173.148438 170.421875 -180.039062 170.421875 -187.96875 C 170.421875 -196.15625 168.664062 -203.109375 165.15625 -208.828125 C 161.644531 -214.546875 156.671875 -218.929688 150.234375 -221.984375 C 143.796875 -225.046875 136.03125 -226.578125 126.9375 -226.578125 L 97.296875 -226.578125 L 97.296875 0 Z M 17.9375 0 "/></g></g></g><g fill="#ffffff" fill-opacity="1"><g transform="translate(558.985069, 440.255069)"><g><path d="M 69.796875 4.484375 C 58.359375 4.484375 48.769531 0.679688 41.03125 -6.921875 C 33.300781 -14.523438 29.4375 -23.984375 29.4375 -35.296875 C 29.4375 -46.597656 33.300781 -56.050781 41.03125 -63.65625 C 48.769531 -71.257812 58.359375 -75.0625 69.796875 -75.0625 C 81.109375 -75.0625 90.628906 -71.257812 98.359375 -63.65625 C 106.097656 -56.050781 109.96875 -46.597656 109.96875 -35.296875 C 109.96875 -23.984375 106.097656 -14.523438 98.359375 -6.921875 C 90.628906 0.679688 81.109375 4.484375 69.796875 4.484375 Z M 69.796875 4.484375 "/></g></g></g></svg>